<?xml version="1.0" encoding="UTF-8"?>
<svg id="Layer_1" xmlns="http://www.w3.org/2000/svg" version="1.1" viewBox="0 0 854.42 325.69">
  <!-- Generator: Adobe Illustrator 29.6.0, SVG Export Plug-In . SVG Version: 2.1.1 Build 207)  -->
  <defs>
    <style>
      .st0 {
        fill: #68615c;
      }

      .st1 {
        fill: #3f6b55;
      }

      .st2 {
        fill: #635752;
      }
    </style>
  </defs>
  <path class="st1" d="M276.1,94.65h35.79c25.36,0,40.94,16.48,40.94,46.08s-15.06,45.96-40.55,45.96h-36.17v-92.04ZM291.42,173.69h19.7c20.6,0,26.39-15.32,26.39-32.96s-5.79-33.08-26.39-33.08h-19.7v66.04Z"/>
  <path class="st1" d="M409.6,166.61h13.52c-3.35,12.49-13.13,22.01-29.99,22.01-20.47,0-32.96-14.16-32.96-34.76s12.49-34.76,32.31-34.76c21.24,0,31.67,14.8,31.67,38.23h-50.46c0,11.07,7.08,20.21,19.05,20.21,11.2,0,15.71-6.95,16.86-10.94M373.69,147.3h36.95c0-10.17-7.21-17.51-18.15-17.51s-18.79,7.34-18.79,17.51"/>
  <path class="st1" d="M461.35,129.79c-10.81,0-14.8,3.35-15.45,11.84h-13.13c.64-12.62,8.75-22.53,28.58-22.53,14.55,0,25.36,5.54,25.36,23.04v31.28c0,4.63,1.03,7.08,6.31,6.57v6.44c-3.09,1.16-5.28,1.42-7.85,1.42-7.21,0-10.56-2.57-11.84-9.01h-.26c-4.12,5.79-11.58,9.78-21.75,9.78-13.39,0-21.63-7.72-21.63-18.79,0-14.42,10.68-18.92,27.16-22.14,10.17-1.93,16.35-3.22,16.35-9.53,0-4.76-2.83-8.37-11.84-8.37M473.2,161.72v-9.91c-2.19,1.54-7.47,3.09-13.78,4.38-11.2,2.45-16.09,5.66-16.09,12.36,0,6.05,3.6,9.4,10.94,9.4,11.2,0,18.92-5.53,18.92-16.22"/>
  <rect class="st1" x="501.13" y="94.65" width="13.65" height="92.04"/>
  <polygon class="st1" points="544.64 147.55 544.64 186.69 529.33 186.69 529.33 94.65 593.69 94.65 593.69 107.65 544.64 107.65 544.64 134.43 544.64 147.55"/>
  <rect class="st1" x="603.61" y="94.65" width="13.65" height="92.04"/>
  <path class="st1" d="M659.99,188.62c-20.6,0-33.08-14.29-33.08-34.76s12.49-34.76,33.08-34.76,33.08,14.29,33.08,34.76-12.49,34.76-33.08,34.76M659.99,177.55c12.87,0,19.57-10.17,19.57-23.69s-6.69-23.69-19.57-23.69-19.57,10.04-19.57,23.69,6.69,23.69,19.57,23.69"/>
  <polygon class="st1" points="708.92 120.91 722.3 170.86 722.56 170.86 735.95 120.91 749.21 120.91 762.72 170.86 762.98 170.86 776.24 120.91 790.53 120.91 770.45 186.69 756.8 186.69 742.64 136.49 742.38 136.49 728.35 186.69 714.84 186.69 694.63 120.91 708.92 120.91"/>
  <path class="st2" d="M276.12,212.68h11.1c5.35,0,8.81,2.73,8.81,7.47,0,3.64-1.86,5.75-4.84,6.48v.07c6.01,1.13,3.82,11.32,5.21,11.76v.26h-4.55c-1.2-1.09,1.24-10.05-5.03-10.05h-6.37v10.05h-4.33v-26.03ZM280.45,224.95h5.86c2.66,0,5.42-.51,5.42-4.3s-2.77-4.3-5.42-4.3h-5.86v8.59Z"/>
  <rect class="st2" x="306.96" y="212.68" width="4.33" height="26.04"/>
  <polygon class="st2" points="325.65 212.68 332.27 233.98 332.31 233.98 338.94 212.68 343.52 212.68 334.64 238.72 329.94 238.72 321.06 212.68 325.65 212.68"/>
  <polygon class="st2" points="370.29 223.42 370.29 227.14 357.58 227.14 357.58 235.04 372.44 235.04 372.44 238.72 353.25 238.72 353.25 212.68 372.08 212.68 372.08 216.36 357.58 216.36 357.58 223.42 370.29 223.42"/>
  <path class="st2" d="M383.26,212.68h11.1c5.35,0,8.81,2.73,8.81,7.47,0,3.64-1.86,5.75-4.84,6.48v.07c6.01,1.13,3.82,11.32,5.21,11.76v.26h-4.55c-1.2-1.09,1.24-10.05-5.03-10.05h-6.37v10.05h-4.33v-26.03ZM387.59,224.95h5.86c2.66,0,5.42-.51,5.42-4.3s-2.77-4.3-5.42-4.3h-5.86v8.59Z"/>
  <path class="st2" d="M427.25,225.68c0-7.83,4.91-13.55,12.78-13.55s12.78,5.72,12.78,13.55-4.95,13.58-12.78,13.58-12.78-5.75-12.78-13.58M448.47,225.68c0-5.24-2.48-9.83-8.45-9.83s-8.48,4.59-8.48,9.83,2.51,9.87,8.48,9.87,8.45-4.59,8.45-9.87"/>
  <polygon class="st2" points="479.14 223.93 479.14 227.65 467.88 227.65 467.88 238.71 463.55 238.71 463.55 212.68 481.76 212.68 481.76 216.36 467.88 216.36 467.88 223.93 479.14 223.93"/>
  <path class="st2" d="M506.38,212.68h10.12c7.18,0,11.58,4.66,11.58,13.04s-4.26,13-11.47,13h-10.23v-26.04ZM510.71,235.04h5.57c5.83,0,7.46-4.33,7.46-9.32s-1.64-9.36-7.46-9.36h-5.57v18.68Z"/>
  <polygon class="st2" points="555.87 223.42 555.87 227.14 543.16 227.14 543.16 235.04 558.01 235.04 558.01 238.72 538.82 238.72 538.82 212.68 557.65 212.68 557.65 216.36 543.16 216.36 543.16 223.42 555.87 223.42"/>
  <path class="st2" d="M573.63,232.56l-2.11,6.15h-4.41l9.58-26.04h4.55l9.54,26.04h-4.4l-2.11-6.15h-10.63ZM583.1,228.96l-4.08-12.31h-.07l-4.12,12.31h8.27Z"/>
  <polygon class="st2" points="604.88 212.68 604.88 235.04 617.88 235.04 617.88 238.72 600.55 238.72 600.55 212.68 604.88 212.68"/>
  <path class="st2" d="M647.38,231.65c0,4.15-3.13,7.61-9.69,7.61s-11.21-3.31-11.47-9.21h4.33c.22,3.31,2.48,5.5,7.14,5.5,3.86,0,5.35-1.71,5.35-3.71,0-3.1-2.22-3.68-7.36-4.95-4.08-1.02-8.48-2.59-8.48-7.54,0-4.62,3.57-7.21,9.25-7.21s9.87,2.99,10.23,8.34h-4.33c-.4-3.02-2.29-4.62-5.9-4.62-3.1,0-4.95,1.16-4.95,3.09,0,2.84,2.44,3.35,6.08,4.26,5.57,1.42,9.79,2.62,9.79,8.45"/>
  <path class="st0" d="M152.08,42.97c-48.63,0-88.19,39.56-88.19,88.19v63.37c0,48.63,39.56,88.19,88.19,88.19s88.19-39.56,88.19-88.19v-63.37c0-48.63-39.56-88.19-88.19-88.19M152.08,51.94c43.68,0,79.23,35.54,79.23,79.22v63.37s0,.04,0,.07c-22.63-6.74-46.63-10.3-71.62-10.65-1.02-8.07-2.57-16.12-4.71-24-1.62-5.98-3.58-11.87-5.81-17.62,15.22-1.91,27.23-7.99,35.75-18.14,16.64-19.84,13.68-47.79,13.55-48.97l-.49-4.3-4.32.34c-20.48,1.61-35.63,8.81-45.02,21.39-5.41,7.25-8.13,15.28-9.41,22.61-2.64-3.65-5.82-6.77-9.53-9.36-17.37-12.11-39.89-7.66-40.84-7.46l-4.24.87.72,4.27c2.8,16.54,9.79,28.34,20.76,35.09,7.91,4.87,16.52,6.21,23.6,6.21,4.17,0,7.81-.47,10.48-.95,2.39,5.96,4.45,12.12,6.14,18.37,1.93,7.12,3.37,14.39,4.34,21.68-2.91.05-5.82.13-8.75.26-21.96-8.33-45.17-13.7-69.06-16.01v-37.06c0-43.68,35.54-79.22,79.22-79.22M155.86,97.95c7.09-9.47,18.48-15.27,33.9-17.29.07,8.02-1.16,25.23-11.75,37.81-7.1,8.43-17.33,13.48-30.46,15.03-.73-7.25-.99-23.14,8.31-35.56M138.28,135.14c-5.96,1.03-17.7,1.93-27.54-4.15-7.65-4.73-12.9-12.91-15.63-24.33,6.65-.54,19.45-.41,29.51,6.62,6.85,4.8,11.44,12.14,13.65,21.86M72.86,194.53v-17.3c15.81,1.58,31.31,4.56,46.31,8.89-21.23,2.56-37.58,6.76-46.29,9.34,0-.31-.02-.62-.02-.93M73.52,204.63c9.97-3.07,35.07-9.81,67.93-11.41h.13c31.43-1.52,61.4,2.05,89.17,10.59-.34,2.91-.84,5.76-1.49,8.57-23.02-2.75-45.83-4.04-67.84-3.81-22.74.23-31.65,2.33-34.04,8.04-2.91,6.9,5.23,11.45,13.84,16.27,3.92,2.19,13.09,7.32,13.21,9.63-.35,1.59-8.35,3.92-11.76,4.92-8.18,2.39-17.46,5.09-21.91,11.81-1.1,1.66-2.15,3.99-2.37,6.97-23.97-11.31-41.38-34.3-44.87-61.58M152.08,273.75c-8.5,0-16.69-1.36-24.37-3.85-.87-3.01-.14-4.7.53-5.71,2.63-3.98,10.24-6.2,16.94-8.15,8.48-2.48,16.5-4.81,18-11.58,1.9-8.51-8.45-14.3-17.59-19.41-2.78-1.55-6.65-3.72-8.68-5.31,2.61-.92,8.99-2.06,24.6-2.21,21.13-.23,43.05.99,65.19,3.57-10.95,30.65-40.26,52.65-74.62,52.65"/>
  <path class="st1" d="M541.5,142.86c-5.3,5.52-5.76,12.77-5.71,12.78.05.02,1.18-7.33,7.01-12.12,3.8-3.13,8.07-3.99,10.01-4.13,1.88-.14,6.11-.32,10.83,1.81,4.59,2.07,6.87,6.59,11.12,8.87,4.6,2.51,10.76.89,13.87-3.3.83-1.02,1.45-2.04,1.9-3.12.5-1.19.73-2.28.89-3.47.44-3.39.35-8.42-.68-8.58-.52-.08-.86,1.16-1.9,2.77-2.27,3.51-5.87,5.61-8.03,6.22-3.98,1.11-6.3-1.92-11.57-3.86-9.32-3.42-21.42-.45-27.75,6.14"/>
</svg>