<?xml version="1.0" encoding="UTF-8"?>
<svg id="Layer_1" xmlns="http://www.w3.org/2000/svg" version="1.1" viewBox="0 0 687.69 675.5">
  <!-- Generator: Adobe Illustrator 29.6.0, SVG Export Plug-In . SVG Version: 2.1.1 Build 207)  -->
  <defs>
    <style>
      .st0 {
        fill: #68615c;
      }

      .st1 {
        fill: #3f6b55;
      }

      .st2 {
        fill: #635752;
      }
    </style>
  </defs>
  <path class="st2" d="M166.99,512.55h10.58c5.1,0,8.4,2.6,8.4,7.11,0,3.47-1.77,5.48-4.61,6.17v.07c5.72,1.07,3.64,10.79,4.96,11.2v.24h-4.34c-1.14-1.04,1.18-9.57-4.79-9.57h-6.07v9.57h-4.13v-24.8ZM171.12,524.24h5.59c2.53,0,5.17-.49,5.17-4.09s-2.64-4.09-5.17-4.09h-5.59v8.19Z"/>
  <rect class="st2" x="196.37" y="512.55" width="4.13" height="24.81"/>
  <polygon class="st2" points="214.17 512.55 220.49 532.84 220.52 532.84 226.84 512.55 231.21 512.55 222.74 537.36 218.27 537.36 209.8 512.55 214.17 512.55"/>
  <polygon class="st2" points="256.71 522.78 256.71 526.32 244.6 526.32 244.6 533.85 258.76 533.85 258.76 537.36 240.47 537.36 240.47 512.55 258.41 512.55 258.41 516.05 244.6 516.05 244.6 522.78 256.71 522.78"/>
  <path class="st2" d="M269.06,512.55h10.58c5.1,0,8.4,2.6,8.4,7.11,0,3.47-1.77,5.48-4.61,6.17v.07c5.72,1.07,3.64,10.79,4.96,11.2v.24h-4.34c-1.14-1.04,1.18-9.57-4.79-9.57h-6.07v9.57h-4.13v-24.8ZM273.19,524.24h5.59c2.53,0,5.17-.49,5.17-4.09s-2.64-4.09-5.17-4.09h-5.59v8.19Z"/>
  <path class="st2" d="M310.97,524.94c0-7.46,4.68-12.91,12.18-12.91s12.18,5.45,12.18,12.91-4.72,12.94-12.18,12.94-12.18-5.48-12.18-12.94M331.2,524.94c0-5-2.36-9.37-8.05-9.37s-8.08,4.37-8.08,9.37,2.39,9.4,8.08,9.4,8.05-4.37,8.05-9.4"/>
  <polygon class="st2" points="360.41 523.27 360.41 526.81 349.69 526.81 349.69 537.36 345.56 537.36 345.56 512.55 362.91 512.55 362.91 516.05 349.69 516.05 349.69 523.27 360.41 523.27"/>
  <path class="st2" d="M386.36,512.55h9.64c6.84,0,11.03,4.44,11.03,12.42s-4.06,12.38-10.93,12.38h-9.75v-24.81ZM390.49,533.85h5.31c5.55,0,7.11-4.13,7.11-8.88s-1.56-8.92-7.11-8.92h-5.31v17.8Z"/>
  <polygon class="st2" points="433.51 522.78 433.51 526.32 421.4 526.32 421.4 533.85 435.56 533.85 435.56 537.36 417.28 537.36 417.28 512.55 435.21 512.55 435.21 516.05 421.4 516.05 421.4 522.78 433.51 522.78"/>
  <path class="st2" d="M450.44,531.49l-2.01,5.86h-4.2l9.12-24.81h4.34l9.09,24.81h-4.2l-2.01-5.86h-10.13ZM459.46,528.06l-3.89-11.72h-.07l-3.92,11.72h7.88Z"/>
  <polygon class="st2" points="480.21 512.55 480.21 533.85 492.6 533.85 492.6 537.36 476.08 537.36 476.08 512.55 480.21 512.55"/>
  <path class="st2" d="M520.7,530.62c0,3.95-2.98,7.25-9.23,7.25s-10.68-3.16-10.93-8.78h4.13c.21,3.16,2.36,5.24,6.8,5.24,3.68,0,5.1-1.63,5.1-3.54,0-2.95-2.12-3.5-7.01-4.72-3.88-.97-8.08-2.46-8.08-7.18,0-4.41,3.4-6.87,8.81-6.87s9.4,2.84,9.75,7.94h-4.13c-.38-2.88-2.19-4.4-5.62-4.4-2.95,0-4.72,1.11-4.72,2.95,0,2.7,2.33,3.19,5.79,4.06,5.31,1.35,9.33,2.5,9.33,8.05"/>
  <path class="st0" d="M343.84,137.63c-46.33,0-84.02,37.69-84.02,84.02v60.37c0,46.33,37.69,84.02,84.02,84.02s84.02-37.69,84.02-84.02v-60.37c0-46.33-37.69-84.02-84.02-84.02M343.84,146.17c41.62,0,75.48,33.86,75.48,75.48v60.37s0,.04,0,.06c-21.56-6.42-44.43-9.82-68.24-10.15-.97-7.69-2.45-15.36-4.48-22.86-1.54-5.7-3.41-11.31-5.54-16.79,14.5-1.82,25.95-7.61,34.06-17.28,15.86-18.9,13.03-45.54,12.91-46.66l-.47-4.1-4.11.32c-19.52,1.53-33.95,8.39-42.89,20.38-5.15,6.91-7.75,14.56-8.96,21.54-2.52-3.48-5.54-6.45-9.08-8.92-16.55-11.53-38-7.3-38.91-7.11l-4.04.83.69,4.07c2.67,15.75,9.32,27,19.78,33.43,7.54,4.64,15.74,5.92,22.49,5.92,3.97,0,7.44-.44,9.98-.91,2.28,5.68,4.24,11.54,5.85,17.5,1.84,6.79,3.21,13.71,4.13,20.66-2.77.05-5.54.12-8.34.25-20.92-7.94-43.04-13.05-65.79-15.26v-35.31c0-41.62,33.86-75.48,75.48-75.48M347.44,190.01c6.76-9.02,17.61-14.55,32.29-16.47.06,7.64-1.11,24.04-11.19,36.02-6.76,8.03-16.51,12.84-29.02,14.32-.69-6.9-.94-22.04,7.92-33.87M330.69,225.44c-5.68.98-16.86,1.84-26.23-3.95-7.29-4.51-12.29-12.3-14.89-23.18,6.33-.51,18.53-.39,28.11,6.31,6.53,4.57,10.89,11.56,13.01,20.83M268.36,282.02v-16.48c15.06,1.51,29.83,4.34,44.12,8.47-20.23,2.44-35.8,6.44-44.1,8.9,0-.3-.02-.59-.02-.89M269,291.65c9.5-2.93,33.41-9.34,64.72-10.87h.12c29.94-1.45,58.5,1.95,84.96,10.09-.33,2.77-.8,5.49-1.42,8.16-21.94-2.62-43.67-3.85-64.63-3.63-21.67.21-30.16,2.22-32.43,7.66-2.77,6.57,4.98,10.91,13.19,15.5,3.73,2.09,12.47,6.98,12.59,9.18-.34,1.51-7.95,3.74-11.21,4.69-7.79,2.27-16.63,4.85-20.87,11.25-1.05,1.59-2.05,3.81-2.26,6.64-22.84-10.78-39.42-32.68-42.75-58.67M343.84,357.5c-8.1,0-15.9-1.3-23.22-3.67-.83-2.87-.13-4.48.51-5.44,2.51-3.79,9.75-5.9,16.14-7.77,8.08-2.36,15.72-4.59,17.15-11.03,1.81-8.11-8.05-13.63-16.75-18.49-2.65-1.48-6.34-3.54-8.27-5.06,2.49-.87,8.57-1.96,23.44-2.11,20.13-.22,41.02.94,62.11,3.4-10.43,29.2-38.36,50.16-71.1,50.16"/>
  <path class="st1" d="M98.79,400.1h34.1c24.16,0,39,15.7,39,43.91s-14.35,43.78-38.63,43.78h-34.46v-87.69ZM113.38,475.4h18.77c19.62,0,25.14-14.59,25.14-31.4s-5.52-31.52-25.14-31.52h-18.77v62.92Z"/>
  <path class="st1" d="M225.98,468.66h12.88c-3.19,11.9-12.51,20.97-28.58,20.97-19.5,0-31.4-13.49-31.4-33.11s11.9-33.11,30.78-33.11c20.24,0,30.17,14.1,30.17,36.43h-48.08c0,10.55,6.75,19.25,18.15,19.25,10.67,0,14.96-6.62,16.07-10.42M191.76,450.26h35.2c0-9.69-6.87-16.68-17.29-16.68s-17.91,6.99-17.91,16.68"/>
  <path class="st1" d="M275.28,433.58c-10.3,0-14.1,3.19-14.72,11.28h-12.51c.61-12.02,8.34-21.46,27.23-21.46,13.86,0,24.16,5.27,24.16,21.95v29.8c0,4.41.98,6.75,6.01,6.26v6.13c-2.94,1.1-5.03,1.35-7.48,1.35-6.87,0-10.06-2.45-11.28-8.58h-.25c-3.92,5.52-11.04,9.32-20.73,9.32-12.75,0-20.6-7.36-20.6-17.91,0-13.74,10.18-18.03,25.88-21.1,9.69-1.84,15.58-3.07,15.58-9.08,0-4.54-2.7-7.97-11.29-7.97M286.57,464v-9.44c-2.09,1.47-7.11,2.94-13.12,4.17-10.67,2.33-15.33,5.4-15.33,11.77,0,5.76,3.43,8.95,10.42,8.95,10.67,0,18.03-5.27,18.03-15.45"/>
  <rect class="st1" x="313.18" y="400.1" width="13" height="87.69"/>
  <polygon class="st1" points="354.64 450.5 354.64 487.79 340.04 487.79 340.04 400.1 401.37 400.1 401.37 412.48 354.64 412.48 354.64 437.99 354.64 450.5"/>
  <rect class="st1" x="410.81" y="400.1" width="13" height="87.69"/>
  <path class="st1" d="M464.53,489.63c-19.62,0-31.52-13.61-31.52-33.11s11.9-33.11,31.52-33.11,31.52,13.61,31.52,33.11-11.9,33.11-31.52,33.11M464.53,479.08c12.26,0,18.64-9.69,18.64-22.57s-6.38-22.57-18.64-22.57-18.64,9.57-18.64,22.57,6.38,22.57,18.64,22.57"/>
  <polygon class="st1" points="511.15 425.12 523.9 472.7 524.15 472.7 536.9 425.12 549.53 425.12 562.41 472.7 562.66 472.7 575.29 425.12 588.9 425.12 569.77 487.79 556.77 487.79 543.28 439.96 543.03 439.96 529.67 487.79 516.79 487.79 497.53 425.12 511.15 425.12"/>
  <path class="st1" d="M351.64,446.03c-5.05,5.26-5.49,12.16-5.44,12.18.04.02,1.13-6.99,6.67-11.55,3.62-2.98,7.69-3.8,9.54-3.94,1.79-.13,5.82-.31,10.32,1.72,4.37,1.97,6.55,6.28,10.6,8.45,4.39,2.4,10.25.85,13.21-3.15.79-.97,1.38-1.94,1.81-2.97.48-1.13.7-2.17.85-3.31.42-3.23.33-8.02-.65-8.18-.5-.08-.82,1.11-1.81,2.64-2.16,3.35-5.59,5.35-7.65,5.92-3.79,1.06-6-1.83-11.02-3.68-8.88-3.26-20.4-.43-26.44,5.85"/>
</svg>